<svg id="visual" viewBox="0 0 1920 1080" width="1920" height="1080" xmlns="http://www.w3.org/2000/svg" xmlns:xlink="http://www.w3.org/1999/xlink" version="1.1"><g stroke-width="1" stroke-linejoin="bevel"><path d="M1066.7 521L1043.7 396L836.3 554Z" fill="#303030" stroke="#303030"></path><path d="M1043.7 396L843.3 368L836.3 554Z" fill="#5e5e5e" stroke="#5e5e5e"></path><path d="M836.3 554L877.3 690L1066.7 521Z" fill="#000000" stroke="#000000"></path><path d="M877.3 690L1090.7 710L1066.7 521Z" fill="#000000" stroke="#000000"></path><path d="M843.3 368L662 506L836.3 554Z" fill="#c6c6c6" stroke="#c6c6c6"></path><path d="M836.3 554L605 695L877.3 690Z" fill="#e2e2e2" stroke="#e2e2e2"></path><path d="M843.3 368L646 398L662 506Z" fill="#ffffff" stroke="#ffffff"></path><path d="M1043.7 396L877.3 151L843.3 368Z" fill="#303030" stroke="#303030"></path><path d="M843.3 368L679 151L646 398Z" fill="#919191" stroke="#919191"></path><path d="M1090.7 710L1264 579L1066.7 521Z" fill="#ababab" stroke="#ababab"></path><path d="M1066.7 521L1300 398L1043.7 396Z" fill="#ababab" stroke="#ababab"></path><path d="M1043.7 396L1096.7 145L877.3 151Z" fill="#ffffff" stroke="#ffffff"></path><path d="M1264 579L1300 398L1066.7 521Z" fill="#ffffff" stroke="#ffffff"></path><path d="M1268 203L1096.7 145L1043.7 396Z" fill="#c6c6c6" stroke="#c6c6c6"></path><path d="M404.7 554L605 695L662 506Z" fill="#ababab" stroke="#ababab"></path><path d="M662 506L605 695L836.3 554Z" fill="#919191" stroke="#919191"></path><path d="M877.3 690L1085.7 867L1090.7 710Z" fill="#c6c6c6" stroke="#c6c6c6"></path><path d="M1090.7 710L1297 691L1264 579Z" fill="#ffffff" stroke="#ffffff"></path><path d="M1264 579L1500.3 536L1300 398Z" fill="#919191" stroke="#919191"></path><path d="M836.3 923L1085.7 867L877.3 690Z" fill="#303030" stroke="#303030"></path><path d="M1090.7 710L1297 861L1297 691Z" fill="#919191" stroke="#919191"></path><path d="M841.3 0L679 151L877.3 151Z" fill="#303030" stroke="#303030"></path><path d="M877.3 151L679 151L843.3 368Z" fill="#303030" stroke="#303030"></path><path d="M646 398L404.7 554L662 506Z" fill="#777777" stroke="#777777"></path><path d="M1300 398L1268 203L1043.7 396Z" fill="#ababab" stroke="#ababab"></path><path d="M605 695L836.3 923L877.3 690Z" fill="#1b1b1b" stroke="#1b1b1b"></path><path d="M1273 0L1034.7 0L1096.7 145Z" fill="#474747" stroke="#474747"></path><path d="M1096.7 145L1034.7 0L877.3 151Z" fill="#ffffff" stroke="#ffffff"></path><path d="M1034.7 0L841.3 0L877.3 151Z" fill="#777777" stroke="#777777"></path><path d="M1294 1080L1297 861L1085.7 867Z" fill="#919191" stroke="#919191"></path><path d="M1085.7 867L1297 861L1090.7 710Z" fill="#919191" stroke="#919191"></path><path d="M1490.3 683L1500.3 536L1264 579Z" fill="#919191" stroke="#919191"></path><path d="M446.7 166L646 398L679 151Z" fill="#c6c6c6" stroke="#c6c6c6"></path><path d="M446.7 166L428.7 357L646 398Z" fill="#303030" stroke="#303030"></path><path d="M605 695L621 915L836.3 923Z" fill="#1b1b1b" stroke="#1b1b1b"></path><path d="M462.7 756L621 915L605 695Z" fill="#e2e2e2" stroke="#e2e2e2"></path><path d="M428.7 357L404.7 554L646 398Z" fill="#474747" stroke="#474747"></path><path d="M404.7 554L462.7 756L605 695Z" fill="#ababab" stroke="#ababab"></path><path d="M1490.3 683L1264 579L1297 691Z" fill="#ffffff" stroke="#ffffff"></path><path d="M1300 398L1476.3 180L1268 203Z" fill="#e2e2e2" stroke="#e2e2e2"></path><path d="M841.3 0L638 0L679 151Z" fill="#474747" stroke="#474747"></path><path d="M1476.3 180L1273 0L1268 203Z" fill="#c6c6c6" stroke="#c6c6c6"></path><path d="M1268 203L1273 0L1096.7 145Z" fill="#ffffff" stroke="#ffffff"></path><path d="M1297 861L1490.3 683L1297 691Z" fill="#777777" stroke="#777777"></path><path d="M638 0L446.7 166L679 151Z" fill="#303030" stroke="#303030"></path><path d="M428.7 357L215.3 522L404.7 554Z" fill="#474747" stroke="#474747"></path><path d="M1707.7 566L1529.3 395L1500.3 536Z" fill="#474747" stroke="#474747"></path><path d="M1500.3 536L1529.3 395L1300 398Z" fill="#777777" stroke="#777777"></path><path d="M621 915L839.3 1080L836.3 923Z" fill="#c6c6c6" stroke="#c6c6c6"></path><path d="M836.3 923L1051.7 1080L1085.7 867Z" fill="#303030" stroke="#303030"></path><path d="M839.3 1080L1051.7 1080L836.3 923Z" fill="#5e5e5e" stroke="#5e5e5e"></path><path d="M1529.3 395L1476.3 180L1300 398Z" fill="#303030" stroke="#303030"></path><path d="M243.3 888L402.7 902L462.7 756Z" fill="#c6c6c6" stroke="#c6c6c6"></path><path d="M462.7 756L402.7 902L621 915Z" fill="#5e5e5e" stroke="#5e5e5e"></path><path d="M621 915L602 1080L839.3 1080Z" fill="#ffffff" stroke="#ffffff"></path><path d="M638 0L451.7 0L446.7 166Z" fill="#1b1b1b" stroke="#1b1b1b"></path><path d="M185.3 349L215.3 522L428.7 357Z" fill="#c6c6c6" stroke="#c6c6c6"></path><path d="M437.7 1080L602 1080L621 915Z" fill="#ffffff" stroke="#ffffff"></path><path d="M1297 861L1497.3 904L1490.3 683Z" fill="#000000" stroke="#000000"></path><path d="M1051.7 1080L1294 1080L1085.7 867Z" fill="#5e5e5e" stroke="#5e5e5e"></path><path d="M1457.3 1080L1497.3 904L1297 861Z" fill="#e2e2e2" stroke="#e2e2e2"></path><path d="M1490.3 683L1707.7 566L1500.3 536Z" fill="#c6c6c6" stroke="#c6c6c6"></path><path d="M404.7 554L174.3 756L462.7 756Z" fill="#ababab" stroke="#ababab"></path><path d="M185.3 349L428.7 357L220.3 168Z" fill="#c6c6c6" stroke="#c6c6c6"></path><path d="M1733.7 156L1518.3 0L1476.3 180Z" fill="#303030" stroke="#303030"></path><path d="M1476.3 180L1518.3 0L1273 0Z" fill="#c6c6c6" stroke="#c6c6c6"></path><path d="M220.3 168L428.7 357L446.7 166Z" fill="#1b1b1b" stroke="#1b1b1b"></path><path d="M1685.7 746L1707.7 566L1490.3 683Z" fill="#919191" stroke="#919191"></path><path d="M1529.3 395L1729.7 334L1476.3 180Z" fill="#919191" stroke="#919191"></path><path d="M402.7 902L437.7 1080L621 915Z" fill="#ffffff" stroke="#ffffff"></path><path d="M250.3 1080L437.7 1080L402.7 902Z" fill="#e2e2e2" stroke="#e2e2e2"></path><path d="M451.7 0L220.3 168L446.7 166Z" fill="#000000" stroke="#000000"></path><path d="M1683.7 865L1685.7 746L1497.3 904Z" fill="#474747" stroke="#474747"></path><path d="M1497.3 904L1685.7 746L1490.3 683Z" fill="#777777" stroke="#777777"></path><path d="M1294 1080L1457.3 1080L1297 861Z" fill="#ababab" stroke="#ababab"></path><path d="M1707.7 566L1729.7 334L1529.3 395Z" fill="#c6c6c6" stroke="#c6c6c6"></path><path d="M174.3 756L404.7 554L215.3 522Z" fill="#e2e2e2" stroke="#e2e2e2"></path><path d="M174.3 756L243.3 888L462.7 756Z" fill="#777777" stroke="#777777"></path><path d="M0 524L174.3 756L215.3 522Z" fill="#ffffff" stroke="#ffffff"></path><path d="M1703.7 1080L1683.7 865L1497.3 904Z" fill="#1b1b1b" stroke="#1b1b1b"></path><path d="M1920 721L1920 576L1707.7 566Z" fill="#777777" stroke="#777777"></path><path d="M1707.7 566L1920 363L1729.7 334Z" fill="#474747" stroke="#474747"></path><path d="M1729.7 334L1733.7 156L1476.3 180Z" fill="#1b1b1b" stroke="#1b1b1b"></path><path d="M0 345L0 524L185.3 349Z" fill="#303030" stroke="#303030"></path><path d="M451.7 0L197.3 0L220.3 168Z" fill="#ffffff" stroke="#ffffff"></path><path d="M1733.7 156L1717.7 0L1518.3 0Z" fill="#c6c6c6" stroke="#c6c6c6"></path><path d="M243.3 888L250.3 1080L402.7 902Z" fill="#ababab" stroke="#ababab"></path><path d="M0 1080L250.3 1080L243.3 888Z" fill="#ffffff" stroke="#ffffff"></path><path d="M185.3 349L0 524L215.3 522Z" fill="#000000" stroke="#000000"></path><path d="M174.3 756L0 860L243.3 888Z" fill="#5e5e5e" stroke="#5e5e5e"></path><path d="M0 345L185.3 349L0 211Z" fill="#ababab" stroke="#ababab"></path><path d="M0 211L185.3 349L220.3 168Z" fill="#000000" stroke="#000000"></path><path d="M1457.3 1080L1703.7 1080L1497.3 904Z" fill="#5e5e5e" stroke="#5e5e5e"></path><path d="M1920 721L1707.7 566L1685.7 746Z" fill="#c6c6c6" stroke="#c6c6c6"></path><path d="M0 524L0 727L174.3 756Z" fill="#c6c6c6" stroke="#c6c6c6"></path><path d="M0 0L0 211L220.3 168Z" fill="#777777" stroke="#777777"></path><path d="M1920 721L1685.7 746L1683.7 865Z" fill="#5e5e5e" stroke="#5e5e5e"></path><path d="M1729.7 334L1920 178L1733.7 156Z" fill="#303030" stroke="#303030"></path><path d="M1733.7 156L1920 0L1717.7 0Z" fill="#5e5e5e" stroke="#5e5e5e"></path><path d="M1920 576L1920 363L1707.7 566Z" fill="#777777" stroke="#777777"></path><path d="M1920 928L1920 721L1683.7 865Z" fill="#ababab" stroke="#ababab"></path><path d="M0 727L0 860L174.3 756Z" fill="#5e5e5e" stroke="#5e5e5e"></path><path d="M1920 363L1920 178L1729.7 334Z" fill="#e2e2e2" stroke="#e2e2e2"></path><path d="M197.3 0L0 0L220.3 168Z" fill="#1b1b1b" stroke="#1b1b1b"></path><path d="M1703.7 1080L1920 928L1683.7 865Z" fill="#777777" stroke="#777777"></path><path d="M1920 178L1920 0L1733.7 156Z" fill="#000000" stroke="#000000"></path><path d="M0 860L0 1080L243.3 888Z" fill="#1b1b1b" stroke="#1b1b1b"></path><path d="M1703.7 1080L1920 1080L1920 928Z" fill="#1b1b1b" stroke="#1b1b1b"></path></g></svg>