<svg id="visual" viewBox="0 0 540 960" width="540" height="960" xmlns="http://www.w3.org/2000/svg" xmlns:xlink="http://www.w3.org/1999/xlink" version="1.1"><g stroke-width="1" stroke-linejoin="bevel"><path d="M277 500L226 545L282 507Z" fill="#777777" stroke="#777777"></path><path d="M151 501L192 564L226 545Z" fill="#ffffff" stroke="#ffffff"></path><path d="M321 574L282 507L226 545Z" fill="#ababab" stroke="#ababab"></path><path d="M321 574L325 563L282 507Z" fill="#1b1b1b" stroke="#1b1b1b"></path><path d="M282 385L266 392L277 500Z" fill="#e2e2e2" stroke="#e2e2e2"></path><path d="M246 612L321 574L226 545Z" fill="#303030" stroke="#303030"></path><path d="M192 564L246 612L226 545Z" fill="#919191" stroke="#919191"></path><path d="M321 574L339 562L325 563Z" fill="#c6c6c6" stroke="#c6c6c6"></path><path d="M325 563L339 562L282 507Z" fill="#5e5e5e" stroke="#5e5e5e"></path><path d="M277 500L151 501L226 545Z" fill="#e2e2e2" stroke="#e2e2e2"></path><path d="M135 569L166 601L192 564Z" fill="#000000" stroke="#000000"></path><path d="M192 564L166 601L246 612Z" fill="#303030" stroke="#303030"></path><path d="M277 500L154 450L151 501Z" fill="#777777" stroke="#777777"></path><path d="M266 392L216 403L277 500Z" fill="#919191" stroke="#919191"></path><path d="M277 500L216 403L154 450Z" fill="#777777" stroke="#777777"></path><path d="M81 539L135 569L151 501Z" fill="#919191" stroke="#919191"></path><path d="M151 501L135 569L192 564Z" fill="#474747" stroke="#474747"></path><path d="M379 458L277 500L282 507Z" fill="#ababab" stroke="#ababab"></path><path d="M397 579L380 561L339 562Z" fill="#777777" stroke="#777777"></path><path d="M339 562L382 469L282 507Z" fill="#c6c6c6" stroke="#c6c6c6"></path><path d="M343 636L339 562L321 574Z" fill="#5e5e5e" stroke="#5e5e5e"></path><path d="M216 403L158 428L154 450Z" fill="#e2e2e2" stroke="#e2e2e2"></path><path d="M380 561L382 469L339 562Z" fill="#1b1b1b" stroke="#1b1b1b"></path><path d="M379 458L282 385L277 500Z" fill="#ffffff" stroke="#ffffff"></path><path d="M148 327L169 392L214 287Z" fill="#303030" stroke="#303030"></path><path d="M382 469L379 458L282 507Z" fill="#ababab" stroke="#ababab"></path><path d="M264 675L343 636L246 612Z" fill="#777777" stroke="#777777"></path><path d="M246 612L343 636L321 574Z" fill="#919191" stroke="#919191"></path><path d="M242 688L264 675L246 612Z" fill="#000000" stroke="#000000"></path><path d="M214 287L216 403L266 392Z" fill="#c6c6c6" stroke="#c6c6c6"></path><path d="M216 403L169 392L158 428Z" fill="#ffffff" stroke="#ffffff"></path><path d="M343 636L397 579L339 562Z" fill="#000000" stroke="#000000"></path><path d="M380 561L400 474L382 469Z" fill="#e2e2e2" stroke="#e2e2e2"></path><path d="M466 534L400 474L380 561Z" fill="#5e5e5e" stroke="#5e5e5e"></path><path d="M382 469L400 474L379 458Z" fill="#5e5e5e" stroke="#5e5e5e"></path><path d="M264 675L339 653L343 636Z" fill="#ffffff" stroke="#ffffff"></path><path d="M343 636L451 681L397 579Z" fill="#303030" stroke="#303030"></path><path d="M205 701L242 688L246 612Z" fill="#ababab" stroke="#ababab"></path><path d="M264 675L300 708L339 653Z" fill="#e2e2e2" stroke="#e2e2e2"></path><path d="M205 701L246 612L166 601Z" fill="#303030" stroke="#303030"></path><path d="M135 569L141 650L166 601Z" fill="#919191" stroke="#919191"></path><path d="M60 497L81 539L151 501Z" fill="#ffffff" stroke="#ffffff"></path><path d="M135 569L69 633L141 650Z" fill="#474747" stroke="#474747"></path><path d="M88 436L151 501L154 450Z" fill="#ffffff" stroke="#ffffff"></path><path d="M88 436L154 450L158 428Z" fill="#c6c6c6" stroke="#c6c6c6"></path><path d="M141 650L205 701L166 601Z" fill="#ffffff" stroke="#ffffff"></path><path d="M81 539L71 564L135 569Z" fill="#303030" stroke="#303030"></path><path d="M109 385L88 436L158 428Z" fill="#ffffff" stroke="#ffffff"></path><path d="M81 539L50 572L71 564Z" fill="#ffffff" stroke="#ffffff"></path><path d="M141 650L140 675L205 701Z" fill="#ffffff" stroke="#ffffff"></path><path d="M69 633L140 675L141 650Z" fill="#303030" stroke="#303030"></path><path d="M242 688L300 708L264 675Z" fill="#ababab" stroke="#ababab"></path><path d="M467 595L466 534L397 579Z" fill="#1b1b1b" stroke="#1b1b1b"></path><path d="M291 777L300 708L242 688Z" fill="#ffffff" stroke="#ffffff"></path><path d="M88 436L60 497L151 501Z" fill="#1b1b1b" stroke="#1b1b1b"></path><path d="M379 458L325 339L282 385Z" fill="#919191" stroke="#919191"></path><path d="M282 385L285 312L266 392Z" fill="#5e5e5e" stroke="#5e5e5e"></path><path d="M418 389L325 339L379 458Z" fill="#ffffff" stroke="#ffffff"></path><path d="M169 392L109 385L158 428Z" fill="#5e5e5e" stroke="#5e5e5e"></path><path d="M0 477L0 513L60 497Z" fill="#e2e2e2" stroke="#e2e2e2"></path><path d="M110 364L109 385L169 392Z" fill="#777777" stroke="#777777"></path><path d="M485 485L441 438L400 474Z" fill="#303030" stroke="#303030"></path><path d="M400 474L441 438L379 458Z" fill="#ababab" stroke="#ababab"></path><path d="M60 497L50 572L81 539Z" fill="#ffffff" stroke="#ffffff"></path><path d="M71 564L69 633L135 569Z" fill="#5e5e5e" stroke="#5e5e5e"></path><path d="M148 327L110 364L169 392Z" fill="#777777" stroke="#777777"></path><path d="M0 397L0 413L88 436Z" fill="#000000" stroke="#000000"></path><path d="M441 438L418 389L379 458Z" fill="#c6c6c6" stroke="#c6c6c6"></path><path d="M50 572L69 633L71 564Z" fill="#000000" stroke="#000000"></path><path d="M333 316L285 312L325 339Z" fill="#919191" stroke="#919191"></path><path d="M325 339L285 312L282 385Z" fill="#5e5e5e" stroke="#5e5e5e"></path><path d="M380 699L343 636L339 653Z" fill="#ababab" stroke="#ababab"></path><path d="M397 579L466 534L380 561Z" fill="#000000" stroke="#000000"></path><path d="M329 730L380 699L339 653Z" fill="#777777" stroke="#777777"></path><path d="M291 777L329 730L300 708Z" fill="#1b1b1b" stroke="#1b1b1b"></path><path d="M300 708L329 730L339 653Z" fill="#303030" stroke="#303030"></path><path d="M214 287L169 392L216 403Z" fill="#474747" stroke="#474747"></path><path d="M368 323L333 316L325 339Z" fill="#1b1b1b" stroke="#1b1b1b"></path><path d="M451 681L467 595L397 579Z" fill="#000000" stroke="#000000"></path><path d="M418 389L368 323L325 339Z" fill="#e2e2e2" stroke="#e2e2e2"></path><path d="M540 569L485 485L466 534Z" fill="#474747" stroke="#474747"></path><path d="M466 534L485 485L400 474Z" fill="#474747" stroke="#474747"></path><path d="M441 438L467 421L418 389Z" fill="#777777" stroke="#777777"></path><path d="M485 485L467 421L441 438Z" fill="#1b1b1b" stroke="#1b1b1b"></path><path d="M418 389L400 308L368 323Z" fill="#777777" stroke="#777777"></path><path d="M287 270L214 287L285 312Z" fill="#5e5e5e" stroke="#5e5e5e"></path><path d="M285 312L214 287L266 392Z" fill="#1b1b1b" stroke="#1b1b1b"></path><path d="M287 270L285 312L333 316Z" fill="#e2e2e2" stroke="#e2e2e2"></path><path d="M148 327L84 337L110 364Z" fill="#474747" stroke="#474747"></path><path d="M110 364L76 339L109 385Z" fill="#1b1b1b" stroke="#1b1b1b"></path><path d="M142 292L84 337L148 327Z" fill="#c6c6c6" stroke="#c6c6c6"></path><path d="M0 477L60 497L88 436Z" fill="#e2e2e2" stroke="#e2e2e2"></path><path d="M60 497L0 513L50 572Z" fill="#e2e2e2" stroke="#e2e2e2"></path><path d="M50 572L0 650L69 633Z" fill="#919191" stroke="#919191"></path><path d="M447 755L451 681L380 699Z" fill="#e2e2e2" stroke="#e2e2e2"></path><path d="M380 699L451 681L343 636Z" fill="#777777" stroke="#777777"></path><path d="M0 513L0 560L50 572Z" fill="#777777" stroke="#777777"></path><path d="M62 256L76 339L84 337Z" fill="#919191" stroke="#919191"></path><path d="M84 337L76 339L110 364Z" fill="#e2e2e2" stroke="#e2e2e2"></path><path d="M338 206L287 270L333 316Z" fill="#000000" stroke="#000000"></path><path d="M188 203L142 292L214 287Z" fill="#1b1b1b" stroke="#1b1b1b"></path><path d="M214 287L142 292L148 327Z" fill="#c6c6c6" stroke="#c6c6c6"></path><path d="M0 413L0 477L88 436Z" fill="#000000" stroke="#000000"></path><path d="M202 791L291 777L205 701Z" fill="#777777" stroke="#777777"></path><path d="M205 701L291 777L242 688Z" fill="#5e5e5e" stroke="#5e5e5e"></path><path d="M329 730L387 747L380 699Z" fill="#474747" stroke="#474747"></path><path d="M142 759L205 701L140 675Z" fill="#5e5e5e" stroke="#5e5e5e"></path><path d="M98 737L140 675L69 633Z" fill="#000000" stroke="#000000"></path><path d="M98 737L142 759L140 675Z" fill="#000000" stroke="#000000"></path><path d="M473 309L400 308L418 389Z" fill="#303030" stroke="#303030"></path><path d="M368 323L400 308L333 316Z" fill="#1b1b1b" stroke="#1b1b1b"></path><path d="M369 767L387 747L329 730Z" fill="#000000" stroke="#000000"></path><path d="M0 690L98 737L69 633Z" fill="#777777" stroke="#777777"></path><path d="M540 406L478 380L467 421Z" fill="#ffffff" stroke="#ffffff"></path><path d="M467 421L478 380L418 389Z" fill="#000000" stroke="#000000"></path><path d="M291 777L369 767L329 730Z" fill="#777777" stroke="#777777"></path><path d="M483 732L483 671L451 681Z" fill="#919191" stroke="#919191"></path><path d="M215 811L202 791L156 812Z" fill="#303030" stroke="#303030"></path><path d="M142 759L202 791L205 701Z" fill="#000000" stroke="#000000"></path><path d="M291 777L316 861L369 767Z" fill="#e2e2e2" stroke="#e2e2e2"></path><path d="M447 755L380 699L387 747Z" fill="#c6c6c6" stroke="#c6c6c6"></path><path d="M451 681L483 671L467 595Z" fill="#ababab" stroke="#ababab"></path><path d="M467 595L540 569L466 534Z" fill="#5e5e5e" stroke="#5e5e5e"></path><path d="M0 397L88 436L109 385Z" fill="#303030" stroke="#303030"></path><path d="M76 339L0 397L109 385Z" fill="#000000" stroke="#000000"></path><path d="M0 560L0 650L50 572Z" fill="#5e5e5e" stroke="#5e5e5e"></path><path d="M159 801L202 791L142 759Z" fill="#ffffff" stroke="#ffffff"></path><path d="M202 791L215 811L291 777Z" fill="#919191" stroke="#919191"></path><path d="M540 632L540 569L467 595Z" fill="#c6c6c6" stroke="#c6c6c6"></path><path d="M485 485L540 474L467 421Z" fill="#ffffff" stroke="#ffffff"></path><path d="M540 569L540 474L485 485Z" fill="#1b1b1b" stroke="#1b1b1b"></path><path d="M159 801L142 759L98 805Z" fill="#e2e2e2" stroke="#e2e2e2"></path><path d="M156 812L159 801L98 805Z" fill="#1b1b1b" stroke="#1b1b1b"></path><path d="M0 650L0 690L69 633Z" fill="#919191" stroke="#919191"></path><path d="M455 774L447 755L387 747Z" fill="#474747" stroke="#474747"></path><path d="M483 671L540 632L467 595Z" fill="#777777" stroke="#777777"></path><path d="M455 774L387 747L369 767Z" fill="#e2e2e2" stroke="#e2e2e2"></path><path d="M98 805L142 759L98 737Z" fill="#303030" stroke="#303030"></path><path d="M159 801L156 812L202 791Z" fill="#000000" stroke="#000000"></path><path d="M540 376L473 309L478 380Z" fill="#c6c6c6" stroke="#c6c6c6"></path><path d="M478 380L473 309L418 389Z" fill="#ffffff" stroke="#ffffff"></path><path d="M266 202L261 214L338 206Z" fill="#000000" stroke="#000000"></path><path d="M540 684L540 632L483 671Z" fill="#5e5e5e" stroke="#5e5e5e"></path><path d="M261 214L287 270L338 206Z" fill="#c6c6c6" stroke="#c6c6c6"></path><path d="M287 270L261 214L214 287Z" fill="#ababab" stroke="#ababab"></path><path d="M540 474L540 406L467 421Z" fill="#ababab" stroke="#ababab"></path><path d="M447 755L483 732L451 681Z" fill="#303030" stroke="#303030"></path><path d="M22 784L98 805L98 737Z" fill="#000000" stroke="#000000"></path><path d="M414 242L333 316L400 308Z" fill="#474747" stroke="#474747"></path><path d="M261 214L188 203L214 287Z" fill="#474747" stroke="#474747"></path><path d="M142 292L62 256L84 337Z" fill="#919191" stroke="#919191"></path><path d="M390 839L455 774L369 767Z" fill="#5e5e5e" stroke="#5e5e5e"></path><path d="M447 755L455 774L483 732Z" fill="#474747" stroke="#474747"></path><path d="M540 406L540 376L478 380Z" fill="#919191" stroke="#919191"></path><path d="M471 218L414 242L473 309Z" fill="#c6c6c6" stroke="#c6c6c6"></path><path d="M473 309L414 242L400 308Z" fill="#474747" stroke="#474747"></path><path d="M239 158L188 203L261 214Z" fill="#e2e2e2" stroke="#e2e2e2"></path><path d="M76 339L0 273L0 397Z" fill="#303030" stroke="#303030"></path><path d="M101 230L62 256L142 292Z" fill="#c6c6c6" stroke="#c6c6c6"></path><path d="M368 205L338 206L333 316Z" fill="#ababab" stroke="#ababab"></path><path d="M114 209L101 230L142 292Z" fill="#ffffff" stroke="#ffffff"></path><path d="M540 746L540 684L483 732Z" fill="#474747" stroke="#474747"></path><path d="M483 732L540 684L483 671Z" fill="#919191" stroke="#919191"></path><path d="M239 158L184 193L188 203Z" fill="#474747" stroke="#474747"></path><path d="M188 203L114 209L142 292Z" fill="#c6c6c6" stroke="#c6c6c6"></path><path d="M239 158L261 214L266 202Z" fill="#5e5e5e" stroke="#5e5e5e"></path><path d="M148 850L230 860L215 811Z" fill="#777777" stroke="#777777"></path><path d="M215 811L230 860L291 777Z" fill="#474747" stroke="#474747"></path><path d="M148 850L215 811L156 812Z" fill="#777777" stroke="#777777"></path><path d="M414 242L368 205L333 316Z" fill="#ffffff" stroke="#ffffff"></path><path d="M338 206L346 179L266 202Z" fill="#5e5e5e" stroke="#5e5e5e"></path><path d="M414 242L380 208L368 205Z" fill="#c6c6c6" stroke="#c6c6c6"></path><path d="M98 805L148 850L156 812Z" fill="#1b1b1b" stroke="#1b1b1b"></path><path d="M184 193L114 209L188 203Z" fill="#919191" stroke="#919191"></path><path d="M0 187L0 243L62 256Z" fill="#777777" stroke="#777777"></path><path d="M230 860L316 861L291 777Z" fill="#ffffff" stroke="#ffffff"></path><path d="M316 861L390 839L369 767Z" fill="#919191" stroke="#919191"></path><path d="M0 769L22 784L98 737Z" fill="#474747" stroke="#474747"></path><path d="M98 805L80 866L148 850Z" fill="#000000" stroke="#000000"></path><path d="M0 690L0 769L98 737Z" fill="#5e5e5e" stroke="#5e5e5e"></path><path d="M0 243L0 273L62 256Z" fill="#5e5e5e" stroke="#5e5e5e"></path><path d="M62 256L0 273L76 339Z" fill="#474747" stroke="#474747"></path><path d="M390 839L458 813L455 774Z" fill="#ffffff" stroke="#ffffff"></path><path d="M540 800L540 746L483 732Z" fill="#ababab" stroke="#ababab"></path><path d="M382 134L346 179L368 205Z" fill="#ffffff" stroke="#ffffff"></path><path d="M368 205L346 179L338 206Z" fill="#919191" stroke="#919191"></path><path d="M540 800L483 732L455 774Z" fill="#ffffff" stroke="#ffffff"></path><path d="M282 120L239 158L266 202Z" fill="#ffffff" stroke="#ffffff"></path><path d="M184 193L81 153L114 209Z" fill="#303030" stroke="#303030"></path><path d="M540 376L540 283L473 309Z" fill="#ffffff" stroke="#ffffff"></path><path d="M414 242L475 206L380 208Z" fill="#ffffff" stroke="#ffffff"></path><path d="M380 208L382 134L368 205Z" fill="#e2e2e2" stroke="#e2e2e2"></path><path d="M540 283L471 218L473 309Z" fill="#1b1b1b" stroke="#1b1b1b"></path><path d="M103 884L181 892L148 850Z" fill="#e2e2e2" stroke="#e2e2e2"></path><path d="M148 850L181 892L230 860Z" fill="#5e5e5e" stroke="#5e5e5e"></path><path d="M230 860L228 901L316 861Z" fill="#919191" stroke="#919191"></path><path d="M45 147L62 256L101 230Z" fill="#919191" stroke="#919191"></path><path d="M81 153L101 230L114 209Z" fill="#777777" stroke="#777777"></path><path d="M181 892L228 901L230 860Z" fill="#ababab" stroke="#ababab"></path><path d="M316 861L333 912L390 839Z" fill="#303030" stroke="#303030"></path><path d="M390 839L476 860L458 813Z" fill="#474747" stroke="#474747"></path><path d="M22 784L80 866L98 805Z" fill="#303030" stroke="#303030"></path><path d="M0 874L80 866L22 784Z" fill="#ababab" stroke="#ababab"></path><path d="M540 221L475 206L471 218Z" fill="#ababab" stroke="#ababab"></path><path d="M471 218L475 206L414 242Z" fill="#c6c6c6" stroke="#c6c6c6"></path><path d="M80 866L103 884L148 850Z" fill="#c6c6c6" stroke="#c6c6c6"></path><path d="M288 960L333 912L228 901Z" fill="#ffffff" stroke="#ffffff"></path><path d="M228 901L333 912L316 861Z" fill="#919191" stroke="#919191"></path><path d="M458 813L540 800L455 774Z" fill="#1b1b1b" stroke="#1b1b1b"></path><path d="M540 820L540 800L458 813Z" fill="#c6c6c6" stroke="#c6c6c6"></path><path d="M346 179L282 120L266 202Z" fill="#5e5e5e" stroke="#5e5e5e"></path><path d="M146 97L81 153L184 193Z" fill="#474747" stroke="#474747"></path><path d="M382 134L282 120L346 179Z" fill="#919191" stroke="#919191"></path><path d="M410 915L476 860L390 839Z" fill="#919191" stroke="#919191"></path><path d="M204 92L184 193L239 158Z" fill="#ffffff" stroke="#ffffff"></path><path d="M475 206L382 134L380 208Z" fill="#000000" stroke="#000000"></path><path d="M476 860L540 820L458 813Z" fill="#ffffff" stroke="#ffffff"></path><path d="M540 283L540 221L471 218Z" fill="#000000" stroke="#000000"></path><path d="M475 206L413 101L382 134Z" fill="#ababab" stroke="#ababab"></path><path d="M333 912L410 915L390 839Z" fill="#5e5e5e" stroke="#5e5e5e"></path><path d="M288 960L334 934L333 912Z" fill="#ffffff" stroke="#ffffff"></path><path d="M288 960L228 901L212 960Z" fill="#919191" stroke="#919191"></path><path d="M45 147L0 187L62 256Z" fill="#ababab" stroke="#ababab"></path><path d="M334 934L410 915L333 912Z" fill="#1b1b1b" stroke="#1b1b1b"></path><path d="M476 860L540 908L540 820Z" fill="#ababab" stroke="#ababab"></path><path d="M96 60L45 147L81 153Z" fill="#e2e2e2" stroke="#e2e2e2"></path><path d="M81 153L45 147L101 230Z" fill="#e2e2e2" stroke="#e2e2e2"></path><path d="M80 866L27 960L103 884Z" fill="#c6c6c6" stroke="#c6c6c6"></path><path d="M212 960L228 901L181 892Z" fill="#c6c6c6" stroke="#c6c6c6"></path><path d="M0 769L0 874L22 784Z" fill="#777777" stroke="#777777"></path><path d="M229 87L239 158L282 120Z" fill="#303030" stroke="#303030"></path><path d="M229 87L204 92L239 158Z" fill="#777777" stroke="#777777"></path><path d="M317 65L229 87L282 120Z" fill="#000000" stroke="#000000"></path><path d="M212 960L181 892L175 960Z" fill="#ababab" stroke="#ababab"></path><path d="M334 934L399 960L410 915Z" fill="#303030" stroke="#303030"></path><path d="M175 960L181 892L124 960Z" fill="#1b1b1b" stroke="#1b1b1b"></path><path d="M204 92L146 97L184 193Z" fill="#c6c6c6" stroke="#c6c6c6"></path><path d="M137 94L146 97L124 83Z" fill="#474747" stroke="#474747"></path><path d="M540 221L540 191L475 206Z" fill="#000000" stroke="#000000"></path><path d="M124 960L181 892L103 884Z" fill="#777777" stroke="#777777"></path><path d="M124 83L146 97L167 0Z" fill="#000000" stroke="#000000"></path><path d="M146 97L137 94L81 153Z" fill="#5e5e5e" stroke="#5e5e5e"></path><path d="M0 874L0 890L80 866Z" fill="#5e5e5e" stroke="#5e5e5e"></path><path d="M448 94L413 101L475 206Z" fill="#777777" stroke="#777777"></path><path d="M382 134L317 65L282 120Z" fill="#777777" stroke="#777777"></path><path d="M27 960L124 960L103 884Z" fill="#777777" stroke="#777777"></path><path d="M96 60L124 83L167 0Z" fill="#474747" stroke="#474747"></path><path d="M137 94L124 83L81 153Z" fill="#5e5e5e" stroke="#5e5e5e"></path><path d="M474 960L500 910L410 915Z" fill="#e2e2e2" stroke="#e2e2e2"></path><path d="M410 915L500 910L476 860Z" fill="#777777" stroke="#777777"></path><path d="M288 960L399 960L334 934Z" fill="#474747" stroke="#474747"></path><path d="M413 101L317 65L382 134Z" fill="#303030" stroke="#303030"></path><path d="M167 0L146 97L204 92Z" fill="#ffffff" stroke="#ffffff"></path><path d="M540 191L448 94L475 206Z" fill="#000000" stroke="#000000"></path><path d="M413 101L335 32L317 65Z" fill="#ababab" stroke="#ababab"></path><path d="M399 960L435 960L410 915Z" fill="#c6c6c6" stroke="#c6c6c6"></path><path d="M462 72L443 84L448 94Z" fill="#000000" stroke="#000000"></path><path d="M448 94L443 84L413 101Z" fill="#ababab" stroke="#ababab"></path><path d="M540 960L540 908L500 910Z" fill="#ffffff" stroke="#ffffff"></path><path d="M500 910L540 908L476 860Z" fill="#303030" stroke="#303030"></path><path d="M0 72L0 113L45 147Z" fill="#919191" stroke="#919191"></path><path d="M45 147L0 113L0 187Z" fill="#777777" stroke="#777777"></path><path d="M167 0L204 92L229 87Z" fill="#ffffff" stroke="#ffffff"></path><path d="M124 83L96 60L81 153Z" fill="#000000" stroke="#000000"></path><path d="M435 960L474 960L410 915Z" fill="#000000" stroke="#000000"></path><path d="M0 890L27 960L80 866Z" fill="#ababab" stroke="#ababab"></path><path d="M540 90L462 72L448 94Z" fill="#777777" stroke="#777777"></path><path d="M350 0L335 32L417 0Z" fill="#5e5e5e" stroke="#5e5e5e"></path><path d="M335 32L413 101L417 0Z" fill="#919191" stroke="#919191"></path><path d="M273 0L256 0L229 87Z" fill="#303030" stroke="#303030"></path><path d="M0 890L0 960L27 960Z" fill="#303030" stroke="#303030"></path><path d="M96 60L0 72L45 147Z" fill="#ababab" stroke="#ababab"></path><path d="M540 191L540 90L448 94Z" fill="#777777" stroke="#777777"></path><path d="M350 0L273 0L335 32Z" fill="#c6c6c6" stroke="#c6c6c6"></path><path d="M273 0L317 65L335 32Z" fill="#ffffff" stroke="#ffffff"></path><path d="M273 0L229 87L317 65Z" fill="#919191" stroke="#919191"></path><path d="M96 60L58 0L0 72Z" fill="#c6c6c6" stroke="#c6c6c6"></path><path d="M474 960L540 960L500 910Z" fill="#5e5e5e" stroke="#5e5e5e"></path><path d="M413 101L443 84L417 0Z" fill="#ababab" stroke="#ababab"></path><path d="M540 90L540 81L462 72Z" fill="#919191" stroke="#919191"></path><path d="M256 0L167 0L229 87Z" fill="#303030" stroke="#303030"></path><path d="M417 0L443 84L462 72Z" fill="#919191" stroke="#919191"></path><path d="M459 0L417 0L462 72Z" fill="#474747" stroke="#474747"></path><path d="M167 0L81 0L96 60Z" fill="#1b1b1b" stroke="#1b1b1b"></path><path d="M81 0L58 0L96 60Z" fill="#ababab" stroke="#ababab"></path><path d="M540 0L459 0L462 72Z" fill="#777777" stroke="#777777"></path><path d="M58 0L0 0L0 72Z" fill="#777777" stroke="#777777"></path><path d="M540 81L540 0L462 72Z" fill="#919191" stroke="#919191"></path></g></svg>