<svg xmlns="http://www.w3.org/2000/svg" version="1.1" xmlns:xlink="http://www.w3.org/1999/xlink" xmlns:svgjs="http://svgjs.dev/svgjs" width="1440" height="560" preserveAspectRatio="none" viewBox="0 0 1440 560"><g mask="url(&quot;#SvgjsMask1192&quot;)" fill="none"><rect width="1440" height="560" x="0" y="0" fill="rgba(255, 255, 255, 1)"></rect><use xlink:href="#SvgjsG1198" transform="translate(0, 0)" fill="rgba(0, 0, 0, 1)"></use><use xlink:href="#SvgjsG1198" transform="translate(1280, 0)" fill="rgba(0, 0, 0, 1)"></use></g><defs><mask id="SvgjsMask1192"><rect width="1440" height="560" fill="#ffffff"></rect></mask><g id="SvgjsG1195"><path d="M12.346 8.402l-4.199-0.691 0.602-0.429 1.009 0.14 1.007-0.14zM9.758 0.467c0.842 0 1.524 0.682 1.524 1.525 0 0.842-0.537 1.524-1.524 1.524-0.842 0-1.525-0.682-1.525-1.524 0-0.842 0.683-1.524 1.525-1.525z m0.379 11.017v3.684A0.832 0.832 0 0 0 10.97 16a0.832 0.832 0 0 0 0.832-0.832V11.484c0-0.459-0.372-0.832-0.832-0.832a0.833 0.833 0 0 0-0.833 0.832z m5.099 2.104a0.484 0.484 0 0 1-0.483 0.483h-2.552v-2.413h1.104V9.248a0.483 0.483 0 0 1 0.482-0.482h0.966a0.484 0.484 0 0 1 0.483 0.482v4.34z m-5.497 0.483H4.784a0.483 0.483 0 0 1-0.482-0.483V9.247c0-0.266 0.216-0.482 0.482-0.482h0.966a0.483 0.483 0 0 1 0.483 0.482v2.411h3.506v2.413zM7.13 8.866a0.833 0.833 0 0 0 0.686 0.956l3.635 0.599a0.833 0.833 0 0 0 0.956-0.686c0.075-0.453-0.232-0.882-0.686-0.956L8.086 8.18a0.833 0.833 0 0 0-0.956 0.685z m-4.099-4.563C1.845 4.303 0.88 3.338 0.88 2.152S1.845 0 3.031 0s2.152 0.965 2.152 2.152-0.966 2.151-2.152 2.151z m0-0.533c0.892 0 1.62-0.726 1.619-1.619 0-0.892-0.727-1.619-1.619-1.619-0.893 0-1.618 0.727-1.619 1.619 0 0.893 0.725 1.619 1.619 1.619z"></path><path d="M3.042 2.436a0.16 0.16 0 0 1-0.155-0.012 0.16 0.16 0 0 1-0.072-0.111L2.813 1.062a0.162 0.162 0 0 1 0.323 0v0.97l0.83-0.39a0.162 0.162 0 1 1 0.138 0.292l-1.062 0.502z m6.716 2.292l1.976-0.321v1.389l0.976 0.734c0.094 0.094 0.056 0.202 0.033 0.233-0.056 0.074-0.16 0.088-0.233 0.033l-1.231-0.931a0.565 0.565 0 0 0-0.652 0.924l2.103 1.478c0.098 0.069 0.237 0.116 0.376 0.116 0.118 0 0.257-0.049 0.361-0.123 0.221-0.157 0.302-0.435 0.226-0.691L12.912 5.26c-0.208-0.573-0.735-1.249-1.525-1.249H8.128c-0.79 0-1.316 0.675-1.525 1.249l-0.782 2.309c-0.075 0.256 0.007 0.534 0.228 0.691 0.103 0.074 0.242 0.123 0.36 0.123 0.139 0 0.278-0.046 0.376-0.116l2.103-1.478a0.565 0.565 0 0 0-0.652-0.924l-1.232 0.931a0.167 0.167 0 0 1-0.232-0.033c-0.022-0.03-0.061-0.138 0.033-0.233 0 0 0.661-0.497 0.976-0.734v-1.389l1.977 0.322z"></path></g><g id="SvgjsG1193"><path d="M3.394 6.906c0.819-0.002 1.483-0.667 1.487-1.488-0.004-0.821-0.669-1.486-1.487-1.487a1.485 1.485 0 0 0-1.487 1.487c-0.001 0.82 0.664 1.485 1.487 1.487z"></path><path d="M4.981 5.765v1.286H2.7c-1.103 0.008-1.105 1.425 0 1.423h2.993c0.438 0.002 0.711-0.351 0.712-0.748V5.765c0-1.072-1.421-1.072-1.424 0z m1.615-0.766H12.536c0.875-0.002 1.388 0.559 1.386 1.313v2.144H6.596V4.999z"></path><path d="M1.624 3.758c-0.002-1.17-1.625-1.17-1.624 0V13.137h1.66V10.719H14.287v2.4h1.615V5.875c0.004-1.234-1.637-1.234-1.633 0v2.891H1.624V3.758z"></path></g><g id="SvgjsG1197"><path d="M2.396 6.756V16h3.56V10.315H10.085V16h3.559V6.756z"></path><path d="M0.064 8L8.02 0l7.956 8z"></path></g><g id="SvgjsG1196"><path d="M15.964 4.774l-1.312 10.327H10.223L8.916 4.774h5.408L15.395 1.04 16 1.21l-1.024 3.562 0.988 0.002zM8.29 10.788s0.166-1.502-2.131-1.502H2.5c-2.293 0-2.131 1.502-2.132 1.502h7.922zM0.368 13.595s-0.162 1.506 2.132 1.506h3.659c2.297 0 2.131-1.506 2.131-1.506H0.369z m7.578-0.727a0.68 0.68 0 0 0 0.68-0.68c0-0.372-0.304-0.676-0.68-0.676H0.68C0.306 11.512 0 11.816 0 12.188a0.682 0.682 0 0 0 0.68 0.68h7.266z"></path></g><g id="SvgjsG1194"><path d="M7.741 5.269c-0.003 0.523-0.481 1.084-1.101 1.084v8.856c0 1.261-1.714 1.261-1.716 0V6.354c-0.602 0-1.127-0.465-1.126-1.159V0.315c-0.001-0.423 0.612-0.44 0.616 0.017v3.606h0.51V0.299c0-0.389 0.59-0.414 0.591 0.016v3.623h0.526V0.307C6.044-0.103 6.618-0.12 6.616 0.323v3.615h0.526V0.307c-0.002-0.406 0.597-0.423 0.599 0.016v4.946zM12.309 1.449v13.76c0.002 1.229-1.715 1.211-1.717 0V9.746h-0.912V1.449c-0.001-1.932 2.631-1.932 2.629 0z"></path></g><g id="SvgjsG1198"><use xlink:href="#SvgjsG1193" transform="translate(0, 0) scale(2)" fill="rgba(0, 0, 0, 1)"></use><use xlink:href="#SvgjsG1194" transform="translate(0, 128) scale(2)" fill="rgba(0, 0, 0, 1)"></use><use xlink:href="#SvgjsG1194" transform="translate(0, 256) scale(2)" fill="rgba(0, 0, 0, 1)"></use><use xlink:href="#SvgjsG1195" transform="translate(0, 384) scale(2)" fill="rgba(0, 0, 0, 1)"></use><use xlink:href="#SvgjsG1195" transform="translate(0, 512) scale(2)" fill="rgba(0, 0, 0, 1)"></use><use xlink:href="#SvgjsG1193" transform="translate(128, 0) scale(2)" fill="rgba(0, 0, 0, 1)"></use><use xlink:href="#SvgjsG1196" transform="translate(128, 128) scale(2)" fill="rgba(0, 0, 0, 1)"></use><use xlink:href="#SvgjsG1197" transform="translate(128, 256) scale(2)" fill="rgba(0, 0, 0, 1)"></use><use xlink:href="#SvgjsG1197" transform="translate(128, 384) scale(2)" fill="rgba(0, 0, 0, 1)"></use><use xlink:href="#SvgjsG1196" transform="translate(128, 512) scale(2)" fill="rgba(0, 0, 0, 1)"></use><use xlink:href="#SvgjsG1197" transform="translate(256, 0) scale(2)" fill="rgba(0, 0, 0, 1)"></use><use xlink:href="#SvgjsG1197" transform="translate(256, 128) scale(2)" fill="rgba(0, 0, 0, 1)"></use><use xlink:href="#SvgjsG1196" transform="translate(256, 256) scale(2)" fill="rgba(0, 0, 0, 1)"></use><use xlink:href="#SvgjsG1196" transform="translate(256, 384) scale(2)" fill="rgba(0, 0, 0, 1)"></use><use xlink:href="#SvgjsG1195" transform="translate(256, 512) scale(2)" fill="rgba(0, 0, 0, 1)"></use><use xlink:href="#SvgjsG1197" transform="translate(384, 0) scale(2)" fill="rgba(0, 0, 0, 1)"></use><use xlink:href="#SvgjsG1196" transform="translate(384, 128) scale(2)" fill="rgba(0, 0, 0, 1)"></use><use xlink:href="#SvgjsG1197" transform="translate(384, 256) scale(2)" fill="rgba(0, 0, 0, 1)"></use><use xlink:href="#SvgjsG1194" transform="translate(384, 384) scale(2)" fill="rgba(0, 0, 0, 1)"></use><use xlink:href="#SvgjsG1197" transform="translate(384, 512) scale(2)" fill="rgba(0, 0, 0, 1)"></use><use xlink:href="#SvgjsG1194" transform="translate(512, 0) scale(2)" fill="rgba(0, 0, 0, 1)"></use><use xlink:href="#SvgjsG1196" transform="translate(512, 128) scale(2)" fill="rgba(0, 0, 0, 1)"></use><use xlink:href="#SvgjsG1197" transform="translate(512, 256) scale(2)" fill="rgba(0, 0, 0, 1)"></use><use xlink:href="#SvgjsG1195" transform="translate(512, 384) scale(2)" fill="rgba(0, 0, 0, 1)"></use><use xlink:href="#SvgjsG1195" transform="translate(512, 512) scale(2)" fill="rgba(0, 0, 0, 1)"></use><use xlink:href="#SvgjsG1197" transform="translate(640, 0) scale(2)" fill="rgba(0, 0, 0, 1)"></use><use xlink:href="#SvgjsG1196" transform="translate(640, 128) scale(2)" fill="rgba(0, 0, 0, 1)"></use><use xlink:href="#SvgjsG1195" transform="translate(640, 256) scale(2)" fill="rgba(0, 0, 0, 1)"></use><use xlink:href="#SvgjsG1193" transform="translate(640, 384) scale(2)" fill="rgba(0, 0, 0, 1)"></use><use xlink:href="#SvgjsG1195" transform="translate(640, 512) scale(2)" fill="rgba(0, 0, 0, 1)"></use><use xlink:href="#SvgjsG1194" transform="translate(768, 0) scale(2)" fill="rgba(0, 0, 0, 1)"></use><use xlink:href="#SvgjsG1197" transform="translate(768, 128) scale(2)" fill="rgba(0, 0, 0, 1)"></use><use xlink:href="#SvgjsG1194" transform="translate(768, 256) scale(2)" fill="rgba(0, 0, 0, 1)"></use><use xlink:href="#SvgjsG1193" transform="translate(768, 384) scale(2)" fill="rgba(0, 0, 0, 1)"></use><use xlink:href="#SvgjsG1193" transform="translate(768, 512) scale(2)" fill="rgba(0, 0, 0, 1)"></use><use xlink:href="#SvgjsG1195" transform="translate(896, 0) scale(2)" fill="rgba(0, 0, 0, 1)"></use><use xlink:href="#SvgjsG1193" transform="translate(896, 128) scale(2)" fill="rgba(0, 0, 0, 1)"></use><use xlink:href="#SvgjsG1196" transform="translate(896, 256) scale(2)" fill="rgba(0, 0, 0, 1)"></use><use xlink:href="#SvgjsG1193" transform="translate(896, 384) scale(2)" fill="rgba(0, 0, 0, 1)"></use><use xlink:href="#SvgjsG1194" transform="translate(896, 512) scale(2)" fill="rgba(0, 0, 0, 1)"></use><use xlink:href="#SvgjsG1194" transform="translate(1024, 0) scale(2)" fill="rgba(0, 0, 0, 1)"></use><use xlink:href="#SvgjsG1194" transform="translate(1024, 128) scale(2)" fill="rgba(0, 0, 0, 1)"></use><use xlink:href="#SvgjsG1197" transform="translate(1024, 256) scale(2)" fill="rgba(0, 0, 0, 1)"></use><use xlink:href="#SvgjsG1194" transform="translate(1024, 384) scale(2)" fill="rgba(0, 0, 0, 1)"></use><use xlink:href="#SvgjsG1196" transform="translate(1024, 512) scale(2)" fill="rgba(0, 0, 0, 1)"></use><use xlink:href="#SvgjsG1197" transform="translate(1152, 0) scale(2)" fill="rgba(0, 0, 0, 1)"></use><use xlink:href="#SvgjsG1196" transform="translate(1152, 128) scale(2)" fill="rgba(0, 0, 0, 1)"></use><use xlink:href="#SvgjsG1196" transform="translate(1152, 256) scale(2)" fill="rgba(0, 0, 0, 1)"></use><use xlink:href="#SvgjsG1193" transform="translate(1152, 384) scale(2)" fill="rgba(0, 0, 0, 1)"></use><use xlink:href="#SvgjsG1197" transform="translate(1152, 512) scale(2)" fill="rgba(0, 0, 0, 1)"></use></g></defs></svg>